<svg xmlns="http://www.w3.org/2000/svg" xmlns:xlink="http://www.w3.org/1999/xlink" version="1.1" x="0px" y="0px" viewBox="0 0 128 160" style="enable-background:new 0 0 128 128;" xml:space="preserve"><path d="M73,98.2202148c-3.3076172,0-5.9990234,2.6693726-5.9990234,5.9511719c0,1.0957031,0.8955078,1.9838867,2,1.9838867  s2-0.8881836,2-1.9838867c0-1.093811,0.8964844-1.9833984,1.9990234-1.9833984c1.102478,0,2,0.8895874,2,1.9833984  c0,1.0957031,0.8955078,1.9838867,2,1.9838867s2-0.8881836,2-1.9838867C79,100.8895874,76.3085938,98.2202148,73,98.2202148z"/><path d="M54.9995117,98.2202148c-3.3081055,0-5.9990234,2.6693726-5.9990234,5.9511719c0,1.0957031,0.8955078,1.9838867,2,1.9838867  s2-0.8881836,2-1.9838867c0-1.093811,0.8969727-1.9833984,1.9990234-1.9833984c1.1029663,0,2,0.8895874,2,1.9833984  c0,1.0957031,0.8955078,1.9838867,2,1.9838867s2-0.8881836,2-1.9838867  C60.9995117,100.8895874,58.3081055,98.2202148,54.9995117,98.2202148z"/><ellipse cx="23.9995117" cy="32.7563019" rx="2" ry="1.9838562"/><ellipse cx="104" cy="32.7563019" rx="2" ry="1.9838562"/><path d="M48.9854126,48.7533569c-0.2745361-0.5625-0.7999268-0.9633789-1.4185181-1.0824585  c-0.6162109-0.1191406-1.2573242,0.0581055-1.7236328,0.4765625l-4.1860962,3.7588501  c-0.4593506,0.4124756-0.6717529,0.9881592-0.6468506,1.5575562C41,53.6289063,41.003418,53.7958984,41.0365601,53.965271  c0.4492188,2.284729,2.6646118,6.5629883,7.8413086,6.5629883c0.0513306,0,0.1026001-0.0004883,0.1542969-0.0014038  c0.4053345-0.006897,0.7792969-0.1342773,1.0913086-0.3447876l1.0762329,2.2036133  c0.3451538,0.7070923,1.0585938,1.1192017,1.8012695,1.1192017c0.2924805,0,0.5897827-0.0640259,0.8706055-0.1986694  c0.9940796-0.4776001,1.4091797-1.6641235,0.9277344-2.6504517L48.9854126,48.7533569z M45.2412109,54.039978l1.3081055-1.1743164  l1.7851563,3.6542969C46.5111694,56.281311,45.6342773,54.9555664,45.2412109,54.039978z"/><path d="M82.1571655,48.1478882c-0.4667969-0.4194336-1.1054077-0.5941772-1.7245483-0.4769897  c-0.618103,0.1190796-1.1435547,0.5199585-1.4180298,1.0824585l-5.8143921,11.9024048  c-0.4813843,0.9863281-0.0664063,2.1728516,0.9276733,2.6504517c0.281311,0.1346436,0.5782471,0.1986694,0.8711548,0.1986694  c0.7421875,0,1.4550781-0.4121094,1.8007813-1.1192017l1.0761719-2.2036133  c0.3115234,0.2105103,0.6854858,0.3378906,1.0908203,0.3447876c0.0526733,0.0009155,0.1035156,0.0014038,0.1542969,0.0014038  c5.1776733,0,7.3925781-4.2782593,7.8417969-6.5629883c0.0332031-0.1693726,0.0361328-0.3363647,0.0253906-0.5009155  c0.0253906-0.5698853-0.1865234-1.1450806-0.6455078-1.5576782L82.1571655,48.1478882z M79.6610718,56.5272827l1.7891235-3.6616211  l1.3095703,1.175293C82.3662109,54.9613647,81.4901733,56.300293,79.6610718,56.5272827z"/><path d="M127.3925781,62.6991577c0.7382813-0.7855835,0.828125-2.2015991,0.1356812-3.0292969  c-2.484375-2.9765015-10.3671875-9.0594482-23.1962891-9.0594482c-2.8037109,0-5.8612671,0.3202515-9.1347046,1  c-0.0507813-1.3106079-0.2832031-2.6182251-0.6777954-3.6524048c8.9755859-2.0923462,29.734436-10.4072266,19.8916016-41.8608398  C113.7597656,4.0161133,113.0116577,3,112.2431641,3c-0.796875,0-1.6161499,1.0907593-2.3740845,3.2182617  c-2.7080078,7.6015015-10.218689,22.0214233-22.5350952,23.7353516l-0.0772095-0.1932983  c-1.1942749-1.8321533-3.9208984-3.7549438-6.0576172-4.272522c0,0-10.9442749-2.6499023-17.0853882-2.6499023  c-0.0385742,0-0.0761719,0.0004883-0.1142578,0.0004883c-0.0375977,0-0.0762329-0.0004883-0.1141968-0.0004883  c-6.1416016,0-17.085022,2.6499023-17.085022,2.6499023c-2.137207,0.5175781-4.8632813,2.4403687-6.0576172,4.272522  l-0.0772095,0.1932983C28.3496094,28.2401733,20.8388672,13.8203125,18.1308594,6.2182617  C17.3729858,4.0907593,16.5537109,3,15.7567749,3c-0.7689819,0-1.5174561,1.0161133-2.168396,3.097168  c-9.843811,31.4536133,10.9160156,39.7684937,19.8916016,41.8602905c-0.3945923,1.0342407-0.6264648,2.3417969-0.6777954,3.6524048  c-3.2723999-0.6796875-6.3291016-1-9.1333008-0.9994507v3.9671631h0.0004883c3.0894165,0,6.3179321,0.4067993,9.6289063,1.1904907  l0.5855103,2.8973999c-4.0957031,3.0215454-8.4771118,6.1343384-9.6182251,6.75  c-0.5233765,0.1953125-3.0463867,1.0645142-6.4213867,1.0645142c-4.9682007,0-9.4071655-1.8120117-13.215271-5.3892212  c2.9818726-2.718689,9.5473633-6.5126953,19.0385742-6.5131836l0.0014038-3.9671631c0,0-0.0008545,0-0.0014038,0  c-12.8291016,0.0003662-20.7119141,6.0829468-23.1962891,9.0594482c-0.6918945,0.8276978-0.6021118,2.2437134,0.1356812,3.0292969  c5.8467407,6.2227173,12.3071899,7.7486572,17.2373047,7.7486572c4.7442017,0,8.0712891-1.4126587,8.0712891-1.4126587  c1.2817993-0.6113892,5.7139282-3.7905884,8.8369141-6.0737915l5.2241821,25.8448486  c0.4536133,2.1351929,0.1245117,5.5267944-0.7319946,7.5370483c0,0-4.1630859,9.7705078,0.9595337,15.4155273  c2.5791016,2.8422852,6.3261719,4.6898804,9.6187134,5.8579102c0.2069702,0.3407593,0.4100952,0.7456055,0.6297607,1.2724609  c0.9522095,2.2802124,3.6436157,4.9755249,6.7564087,5.4785156C59.2578125,124.6978149,61.914978,125,64.784668,125  c1.925354,0,3.9467163-0.1362305,5.9418945-0.4907227c2.7490234-0.4887695,5.4882202-2.9609985,6.7734375-5.1499023  c0.3046875-0.519104,0.6376953-1.0307617,0.9854126-1.5371094c3.477478-1.2153931,6.6786499-3.1625977,9.3104858-6.0634766  c5.1221313-5.6450195,0.9589844-15.4155273,0.9589844-15.4155273c-0.8565063-2.0102539-1.1856079-5.4018555-0.7315063-7.5370483  l5.2236938-25.8448486c3.1240234,2.2832031,7.5546875,5.4624023,8.8369141,6.0737915c0,0,3.3270874,1.4126587,8.0712891,1.4126587  C115.0858765,70.4478149,121.5458984,68.921875,127.3925781,62.6991577z M34.8540039,44.1928711  c-4.1343384-0.9101563-11.8101196-3.4204102-16.2504883-9.9790039c-3.7602539-5.5541992-4.581543-13.0444946-2.456543-22.309082  c3.2885132,7.1782227,10.6577148,19.5932007,23.0053101,21.8344727l-0.0018921,0.0048218l-1.2163086,2.9584961  c-3.5810547-0.1766968-5.7456055-1.5775757-5.8115234-1.6201172c-0.9106445-0.6136475-2.1474609-0.3827515-2.7704468,0.5166016  c-0.6265259,0.9024048-0.3965454,2.137207,0.5135498,2.7588501c0.1192017,0.081604,2.5127563,1.6762695,6.4916992,2.1786499  L34.8540039,44.1928711z M70.0214844,120.6040039c-4.4130859,0.7851563-9.0537109,0.3500977-12.1699219-0.152832  c-0.7885742-0.1275024-1.631897-0.6381836-2.3325806-1.2734985c0.8676758,0.1704102,1.3873291,0.2407837,1.3873291,0.2407837  c0.2518921,0.0336304,0.5057983,0.0498047,0.7583008,0.0498047c1.9310913,0,3.7923584-0.953186,4.3485718-2.3115845  c0,0,0,0,0.9315796-1.5565796c0.4385376-0.7338867,0.7466431-1.1005859,1.0547485-1.1005859  s0.6161499,0.3666992,1.0561523,1.1005859c0.3623657,0.605957,0.4433594,0.902771,0.7900391,1.6464844  c0.5341797,1.1450195,1.7733765,2.1992188,3.7948608,2.1992188c0.109436,0,0.2207031-0.0029297,0.335022-0.0093384  c0.8358765-0.0463867,1.6688843-0.121582,2.4971313-0.2265015  C71.6903687,119.9066772,70.7987671,120.4657593,70.0214844,120.6040039z M84.8222656,109.1049805  c-3.5077515,3.8657227-8.578186,6.0092773-15.069397,6.3706055c-0.0380859,0.0018921-0.0751953,0.0028687-0.1123047,0.0028687  c-0.102478,0-0.1737671-0.0087891-0.2196655-0.0175781c-0.0693359-0.1517944-0.1260376-0.281189-0.1768188-0.3988647  c-0.1748047-0.402832-0.3729858-0.8589478-0.7489624-1.487854c-0.4980469-0.8319702-1.8213501-3.0419922-4.4956055-3.0419922  c-2.6748047,0-3.9971313,2.2115479-4.4941406,3.0425415l-0.9317017,1.5561523  c-0.0384521,0.0639038-0.074646,0.1289063-0.1092529,0.1953125c-0.1553345,0.0776367-0.4473267,0.1743164-0.7998047,0.1743164  c-0.0767212,0-0.1514282-0.0043945-0.222229-0.0137329c-2.684082-0.3602905-10.4790039-2.2089844-14.2651978-6.3817749  c-3.2866211-3.6226196-0.2744141-11.1547852-0.2479858-11.2172852c0.2631836-0.6182251,0.4823608-1.3208008,0.6660156-2.0606079  c2.9364624-0.9086304,12.2035522-3.5581055,20.4042969-3.5581055c8.2025757,0,17.4692993,2.6499023,20.4047852,3.5581055  c0.1835938,0.7402954,0.4022827,1.4423828,0.6660156,2.0606079C85.102478,97.9619141,88.0966797,105.496582,84.8222656,109.1049805z   M91.0126953,53.9248047c-0.0361328,0.1210938-0.0673828,0.2440796-0.0928345,0.3686523L84.109375,87.9873047  c-0.2216797,1.0440063-0.3056641,2.2636719-0.2753906,3.5230103c-4.1679688-1.1988525-12.2860718-3.2090454-19.8344727-3.2090454  c-7.5464478,0-15.6625977,2.0097046-19.8320313,3.2084961c0.031189-1.2490845-0.0507813-2.4560547-0.269104-3.4833984  L37.0795898,54.293457c-0.0249023-0.125-0.0562134-0.2480469-0.0933228-0.3696899  c-0.362793-1.1889038-0.2225952-3.5609741,0.2778931-4.7006836c0.0180054-0.0410156,0.0351563-0.0814819,0.0512085-0.1224976  l6.9683228-17.4346313c0.7587891-0.9379883,2.4224243-2.0712891,3.4647827-2.3236694  c0.0537109-0.0131836,2.8179321-0.6768188,6.2510376-1.3228149v2.0917969c0,1.0957031,0.8955078,1.9839478,2,1.9839478  s2-0.8882446,2-1.9839478v-2.7680054c1.3833008-0.2045898,2.7525024-0.3696899,4-0.4609985v3.2290039  c0,1.0957031,0.8955078,1.9839478,2,1.9839478C65.1044922,32.0952148,66,31.2069702,66,30.1112671v-3.2290039  c1.2470703,0.0913086,2.6162109,0.2564087,4,0.4609985v2.7680054c0,1.0957031,0.8955078,1.9839478,2,1.9839478  s2-0.8882446,2-1.9839478v-2.0917969c3.4326172,0.6455078,6.1972656,1.3091431,6.25,1.3223267  c1.0430298,0.2528687,2.7069702,1.3861694,3.4657593,2.3241577l6.9678345,17.4346313  c0.0166016,0.0410156,0.0341797,0.0819702,0.0518188,0.1229858C91.2354126,50.3623047,91.3759766,52.7348633,91.0126953,53.9248047z   M93.1455078,44.1933594l-1.5029297-3.6567993c3.9785156-0.5023804,6.3720093-2.0970459,6.4912109-2.1786499  c0.9100952-0.6216431,1.1395874-1.8564453,0.5136719-2.7593384c-0.6259766-0.902771-1.8730469-1.1303101-2.78125-0.5087891  c-0.0234375,0.0161743-2.1963501,1.4321899-5.8008423,1.6123047l-1.2177124-2.9628296  c12.3466187-2.241272,19.7158203-14.6552734,23.0048218-21.8344727c2.125,9.2645874,1.303833,16.7548828-2.4569702,22.309082  C104.9541016,40.7744141,97.2744141,43.284668,93.1455078,44.1933594z M110.1552734,66.4799805  c-3.3974609,0-5.9317017-0.8809204-6.4140625-1.0606079c-1.1465454-0.6185913-5.5283203-3.7318726-9.6260376-6.7539063  l0.5859985-2.8969116c3.3115234-0.7841797,6.5410156-1.190979,9.6307983-1.190979  c9.4883423,0,16.0537109,3.7924805,19.0380859,6.5137329C119.5625,64.668457,115.1229858,66.4799805,110.1552734,66.4799805z"/><text x="0" y="143" fill="#000000" font-size="5px" font-weight="bold" font-family="'Helvetica Neue', Helvetica, Arial-Unicode, Arial, Sans-serif">Created by priyanka</text><text x="0" y="148" fill="#000000" font-size="5px" font-weight="bold" font-family="'Helvetica Neue', Helvetica, Arial-Unicode, Arial, Sans-serif">from the Noun Project</text></svg>