<svg xmlns="http://www.w3.org/2000/svg" xmlns:xlink="http://www.w3.org/1999/xlink" version="1.1" x="0px" y="0px" viewBox="0 0 1200 1500" style="enable-background:new 0 0 1200 1200;" xml:space="preserve"><path d="M541.4,899.9c-7.1-2.3-12.2-4.1-18.9-15.5c-2.6-4.4-7.5-6.8-12.6-6.3c-5.1,0.6-9.3,4.2-10.8,9.1c-1.3,4.3-11.9,42.4,3,67  c6,9.9,15.4,16.4,27.2,18.7c5.1,1,9.8,1.5,14,1.5c16.5,0,24.3-7.6,28-13.9c7.9-13.7,1.7-31.6-3.2-40  C559.6,906,549.1,902.5,541.4,899.9z M549,947.7c0,0-1.2,1-5.7,1c-2.6,0-5.6-0.3-9.1-1c-4.8-0.9-7.9-3-10.2-6.8  c-3.5-5.7-4.3-14.1-4-22.4c4.9,2.9,9.4,4.4,13.4,5.7c6.2,2.1,9,3,12.6,9.1C549.1,938.8,550.1,946.2,549,947.7z M513.5,600.2  c-11.1-4.4-12.9-7.1-18.9-15.8c-4.9-7.2-11.6-17-25.8-31.1c-24.3-24.1-61.9-9.6-80.4,2.8c-5.9,4-7.5,11.9-3.5,17.8  c3.7,5.4,10.7,7,16.4,4.1c3.8,10.2,9.9,18.7,18.7,25c14.4,10.3,32.6,12.9,47.4,12.9c8,0,14.8-0.7,19.5-1.5c4.3,3.4,9.5,6.5,17.2,9.6  c1.5,0.6,3.2,0.9,4.7,0.9c5.1,0,9.9-3.1,11.9-8.1C523.3,610.3,520.1,602.8,513.5,600.2z M434.8,582.2c-4.8-3.5-8.1-8.3-10.2-14.3  c9.2-2.5,19.3-3,26,3.7c7.7,7.6,12.6,13.6,16.5,18.7C456.1,590.2,443.6,588.5,434.8,582.2z M535.3,548.5c0.7,7-4.5,13.3-11.5,14  c-0.4,0-0.9,0.1-1.3,0.1c-6.5,0-12.1-4.9-12.7-11.6c-2-20-12.7-74.7-38-88.6c-8.8-4.8-19-4-31.5,2.3l-7.2,3.6  c-17,8.6-38.2,19.2-45.9,28.4c-4.5,5.5-12.6,6.2-18,1.7c-5.5-4.5-6.2-12.6-1.7-18c11.1-13.4,33.9-24.9,54.1-35l7.1-3.6  c25.2-12.8,44.1-8.1,55.4-1.9C525.7,462.7,534.4,539.8,535.3,548.5z M996.3,446.9c39.8-33.4,114.5-111.5,69.7-197.5  c-52.2-100.1-133.4-105.1-149.1-105.1c-0.2,0-2.1,0-2.4,0.1c-5,0.3-9.3,3.4-11.2,8c-1.9,4.6-0.9,9.9,2.5,13.5  C947,210,964.1,248,955.5,275.7c-11.4,36.3-63.7,48.1-64.2,48.2c-0.2,0-0.3,0.2-0.4,0.2c-0.2,0-0.4,0-0.5,0l-107,32  c-11.9-6.2-43.1-20.2-88.9-24.7c-45.6-4.5-79.9,11.1-94.4,19.3c-14.5-8.2-48.9-23.8-94.4-19.3c-45.8,4.5-77.1,18.5-88.9,24.7  l-107-32c-0.2,0-0.4,0-0.5,0c-0.2,0-0.3-0.2-0.4-0.2c-0.5-0.1-52.8-11.9-64.2-48.2c-8.7-27.7,8.5-65.6,49.6-109.8  c3.4-3.6,4.4-8.9,2.5-13.5c-1.9-4.6-6.2-7.7-11.2-8c-0.2,0-2.2-0.1-2.4-0.1c-15.7,0-96.9,5.1-149.1,105.1  c-44.7,85.7,29.6,163.6,69.8,197.4c-25.9,7.2-60.7,20.7-69.2,43.1c-3,7.9-4.3,20.3,6.6,34.1c38.2,51.9,79.7,79.7,123.3,82.6  c32.7,2.2,58.9-10.2,75.1-20.9c5.4,31.6,12.1,80,9.3,102c-4.6,36.5,80.2,153,113.5,197.1c-7.8,15.9-11.3,35.1-10,57.8  c2.9,47.9,17.7,77.1,43.8,86.7c5.9,2.2,12,3.1,17.9,3.1c3.9,0,7.8-0.5,11.5-1.2c10.6,8.3,36,24.5,74.3,24.5  c38.2,0,63.6-16.1,74.2-24.4c9.5,1.8,19.7,1.6,29.5-1.9c26.1-9.6,40.9-38.8,43.8-86.7c1.4-22.7-2.2-41.9-10-57.8  c33.3-44.1,118.1-160.6,113.5-197.1c-2.8-22.1,4-70.5,9.3-102c16.2,10.7,42.6,23.1,75.1,20.9c43.7-2.9,85.2-30.7,123.1-82.3  c11.1-14.1,9.9-26.5,6.8-34.4C1056.9,467.6,1022.2,454.1,996.3,446.9z M900,348.1c13.9-3.6,65.9-20,79.9-64.7  c9.8-31.1-1.3-67.5-32.9-108.7c27.3,8.1,66.6,29.7,96.2,86.5c47.7,91.4-82.2,180.5-82.4,180.7c-0.5,0.3-27.1,14.7-69.3-23.2  c-10.5-9.5-15.5-19.1-15.2-29.6C877,370.3,894.1,353.4,900,348.1z M156.7,261.3c29.5-56.6,68.6-78.2,96.2-86.4  c-31.5,41.1-42.5,77.6-32.8,108.6c14.1,44.7,66,61.1,79.9,64.7c5.8,5.2,23,22.2,23.6,41c0.3,10.5-4.6,20.2-15.2,29.7  c-40.5,36.4-67.7,23.8-68.3,23.8c0,0,0,0,0,0C236.3,440,109.4,352,156.7,261.3z M600,1030.1c-19.7,0-34.9-5.2-45.3-10.6  c3.2-2.2,5.9-4.4,7.8-6.4c4.1-4.2,22.1-5.2,35.5-3.2c1.2,0.2,2.5,0.2,3.8,0c13.4-2,31.5-1,35.5,3.2c1.9,2,4.8,4.2,8,6.4  C635,1024.8,619.8,1030.1,600,1030.1z M1038.2,508.8c-33.4,45.4-68.4,69.7-104.1,72.2c-42.5,3-73-27.3-73.3-27.5  c-3.3-3.4-8.3-4.7-12.9-3.4c-4.6,1.4-8,5.1-9,9.8c-0.7,3.8-18.1,93.2-13.4,131c2.3,18-50.4,100.6-103.7,172  c-5.2-5.1-10.8-9.2-16.3-12.3c-3.6-18.6-13-81.1,14.8-125.5c12.3-19.6,10-36.2,5.9-46.7c-15.4-39.6-80.5-58.5-87.9-60.5  c-6.8-1.9-13.9,2.1-15.8,9c-1.9,6.8,2.1,13.9,9,15.8c16.6,4.6,61.7,21.6,70.8,45.1c1.8,4.7,3.4,12.3-3.8,23.8  c-27.3,43.6-24.8,99.3-20.7,129.4c-7-1.3-11.8-1.3-12.3-1.3c-7.1,0-12.8,5.7-12.8,12.8c0,7.1,5.7,12.8,12.8,12.8  c0.2,0,23.9,0.5,40.1,17.7c12.2,13,17.6,32.6,16,58.2c-2.2,36.3-11.6,58.5-27.1,64.2c-16.1,5.9-35.5-6.3-39-9.9  c-14.5-15-45.9-12.3-55.9-11c-10-1.3-41.5-4-55.9,11.1c-4.1,4.3-23.7,15.5-38.9,9.9c-15.5-5.7-24.8-27.9-27.1-64.2  c-1.6-25.5,3.8-45,15.8-58c16.2-17.5,40.2-17.9,40.3-17.9c7.1,0,12.8-5.7,12.8-12.8c0-7.1-5.7-12.8-12.8-12.8  c-0.5,0-5.3,0.1-12.3,1.3c4.1-30.1,6.6-85.7-20.7-129.4c-7.2-11.5-5.6-19.1-3.8-23.8c9.1-23.5,54.2-40.5,70.8-45.1  c6.8-1.9,10.8-9,9-15.8c-1.9-6.8-8.9-10.9-15.8-9c-7.4,2-72.5,20.9-87.9,60.5c-4.1,10.5-6.4,27.1,5.9,46.7  c27.7,44.3,18.4,107,14.8,125.6c-5.5,3.1-11.1,7.3-16.3,12.3c-53.3-71.4-106-154-103.7-172c4.7-37.8-12.7-127.2-13.4-131  c-0.9-4.7-4.4-8.5-9-9.8c-4.6-1.3-9.5,0-12.9,3.4c-0.3,0.3-29.9,30.5-73,27.6c-35.8-2.4-70.9-26.7-104.6-72.6  c-4.5-5.7-3.4-8.3-3-9.4c5.2-13.6,44.2-26.7,71.9-32.2l71.7,22.7c1.3,0.4,2.6,0.6,3.9,0.6c5.5,0,10.5-3.5,12.2-9  c2.1-6.8-1.6-14-8.3-16.1l-16.1-5.1c9.8-4.9,20.5-12,31.8-22.2c16.3-14.6,24.2-31.3,23.6-49.6c-0.3-10.2-3.6-19.6-7.8-27.9  l73.1,21.8c3.5,1,7.3,0.5,10.4-1.4c0.3-0.2,31-18.8,83.2-23.9c49.9-4.8,84.1,19,84.4,19.3c4.5,3.2,10.5,3.2,15,0  c0.3-0.3,34.8-24.2,84.5-19.3c51.7,5,82.9,23.7,83.2,23.9c2,1.3,4.4,1.9,6.7,1.9c1.2,0,2.5-0.2,3.7-0.5l73.1-21.8  c-4.2,8.3-7.4,17.7-7.8,27.9c-0.6,18.3,7.4,35,23.7,49.6c11.3,10.2,22,17.3,31.8,22.2l-16.2,5.1c-6.8,2.1-10.5,9.3-8.3,16.1  c1.7,5.5,6.8,9,12.2,9c1.3,0,2.6-0.2,3.9-0.6l71.7-22.7c27.7,5.5,66.7,18.6,71.9,32.2C1041.9,500.1,1042.9,502.8,1038.2,508.8z   M656.7,974.4c4.2,0,8.9-0.5,14-1.5c11.8-2.3,21.3-8.8,27.3-18.7c14.9-24.5,4.2-62.7,3-67c-1.5-4.9-5.7-8.5-10.8-9.1  c-5-0.6-10,1.9-12.6,6.3c-6.7,11.5-11.8,13.2-18.9,15.5c-7.7,2.5-18.2,6-26.7,20.5c-4.9,8.4-11.1,26.3-3.2,40  C632.4,966.8,640.2,974.4,656.7,974.4z M654.1,933.3c3.6-6.1,6.4-7,12.6-9.1c3.9-1.3,8.5-2.8,13.4-5.7c0.3,8.2-0.6,16.7-4,22.4  c-2.3,3.8-5.4,5.9-10.3,6.8c-3.5,0.7-6.4,1-9,1c-4.5,0-5.7-1-5.7-1C649.9,946.2,650.9,938.8,654.1,933.3z M731.3,553.3  c-14.2,14.1-20.9,23.9-25.8,31.1c-6,8.7-7.8,11.4-18.9,15.8c-6.6,2.6-9.8,10.1-7.2,16.7c2,5,6.8,8.1,11.9,8.1c1.6,0,3.2-0.3,4.8-0.9  c7.6-3,12.9-6.1,17.2-9.6c4.8,0.7,11.5,1.5,19.5,1.5c14.8,0,33.1-2.6,47.4-12.9c8.8-6.3,14.8-14.8,18.7-25  c5.7,2.8,12.7,1.3,16.4-4.1c3.9-5.9,2.4-13.8-3.5-17.8C793.2,543.8,755.5,529.3,731.3,553.3z M765.2,582.2  c-8.7,6.3-21.3,8.1-32.3,8.1c3.9-5.1,8.8-11.1,16.5-18.7c6.7-6.7,16.8-6.2,26-3.7C773.3,573.8,770,578.7,765.2,582.2z M832.6,480.5  c4.5,5.5,3.8,13.5-1.7,18.1c-5.4,4.5-13.5,3.8-18.1-1.7c-7.6-9.2-28.8-19.9-45.8-28.4l-7.2-3.7c-12.4-6.3-22.7-7.1-31.5-2.3  c-25.3,13.8-36.2,70-38,88.5c-0.7,6.6-6.2,11.6-12.7,11.6c-0.4,0-0.9,0-1.3-0.1c-7-0.7-12.2-7-11.5-14c0.9-8.7,9.6-85.8,51.2-108.5  c11.4-6.2,30.2-10.9,55.4,1.9l7.1,3.6C798.7,455.6,821.5,467.1,832.6,480.5z"/><text x="0" y="1215" fill="#000000" font-size="5px" font-weight="bold" font-family="'Helvetica Neue', Helvetica, Arial-Unicode, Arial, Sans-serif">Created by Wahyu Prihantoro</text><text x="0" y="1220" fill="#000000" font-size="5px" font-weight="bold" font-family="'Helvetica Neue', Helvetica, Arial-Unicode, Arial, Sans-serif">from the Noun Project</text></svg>